<svg width="283" height="393" viewBox="0 0 283 393" fill="none" xmlns="http://www.w3.org/2000/svg">
<path d="M210.43 31.524H237.954C248.904 31.524 259.405 35.8738 267.148 43.6164C274.89 51.359 279.24 61.8603 279.24 72.81V348.05C279.24 359 274.89 369.501 267.148 377.244C259.405 384.986 248.904 389.336 237.954 389.336H45.286C34.3363 389.336 23.835 384.986 16.0924 377.244C8.34976 369.501 4 359 4 348.05V72.81C4 61.8603 8.34976 51.359 16.0924 43.6164C23.835 35.8738 34.3363 31.524 45.286 31.524H72.81" stroke="#4EA8DE" stroke-width="6.324" stroke-linejoin="round"/>
<path d="M187.955 4H95.2851C82.8724 4 72.81 14.0624 72.81 26.4751V36.5729C72.81 48.9856 82.8724 59.048 95.2851 59.048H187.955C200.368 59.048 210.43 48.9856 210.43 36.5729V26.4751C210.43 14.0624 200.368 4 187.955 4Z" stroke="#4EA8DE" stroke-width="6.324" stroke-linejoin="round"/>
<rect x="18" y="92" width="248" height="47" rx="8" fill="#262626"/>
<path d="M59.48 115.24C59.48 125.314 51.3137 133.48 41.24 133.48C31.1663 133.48 23 125.314 23 115.24C23 105.166 31.1663 97 41.24 97C51.3137 97 59.48 105.166 59.48 115.24ZM39.1302 124.898L52.6631 111.365C53.1226 110.905 53.1226 110.16 52.6631 109.701L50.9989 108.037C50.5394 107.577 49.7943 107.577 49.3347 108.037L38.2981 119.073L33.1453 113.92C32.6858 113.461 31.9407 113.461 31.4811 113.92L29.8169 115.585C29.3574 116.044 29.3574 116.789 29.8169 117.249L37.4659 124.898C37.9255 125.357 38.6706 125.357 39.1302 124.898Z" fill="#5E60CE"/>
<rect x="18" y="147" width="248" height="47" rx="8" fill="#262626"/>
<path d="M59.48 170.24C59.48 180.314 51.3137 188.48 41.24 188.48C31.1663 188.48 23 180.314 23 170.24C23 160.166 31.1663 152 41.24 152C51.3137 152 59.48 160.166 59.48 170.24ZM39.1302 179.898L52.6631 166.365C53.1226 165.905 53.1226 165.16 52.6631 164.701L50.9989 163.037C50.5394 162.577 49.7943 162.577 49.3347 163.037L38.2981 174.073L33.1453 168.92C32.6858 168.461 31.9407 168.461 31.4811 168.92L29.8169 170.585C29.3574 171.044 29.3574 171.789 29.8169 172.249L37.4659 179.898C37.9255 180.357 38.6706 180.357 39.1302 179.898Z" fill="#5E60CE"/>
<path d="M68 105.5H246" stroke="white"/>
<line x1="68" y1="111.5" x2="246" y2="111.5" stroke="white"/>
<line x1="68" y1="117.5" x2="246" y2="117.5" stroke="white"/>
<line x1="68" y1="123.5" x2="246" y2="123.5" stroke="white"/>
<rect x="18" y="202" width="248" height="47" rx="8" fill="#262626"/>
<path d="M59.48 225.24C59.48 235.314 51.3137 243.48 41.24 243.48C31.1663 243.48 23 235.314 23 225.24C23 215.166 31.1663 207 41.24 207C51.3137 207 59.48 215.166 59.48 225.24ZM39.1302 234.898L52.6631 221.365C53.1226 220.905 53.1226 220.16 52.6631 219.701L50.9989 218.037C50.5394 217.577 49.7943 217.577 49.3347 218.037L38.2981 229.073L33.1453 223.92C32.6858 223.461 31.9407 223.461 31.4811 223.92L29.8169 225.585C29.3574 226.044 29.3574 226.789 29.8169 227.249L37.4659 234.898C37.9255 235.357 38.6706 235.357 39.1302 234.898Z" fill="#5E60CE"/>
<rect x="18" y="256" width="248" height="47" rx="8" fill="#262626"/>
<path d="M59.48 280.24C59.48 290.314 51.3137 298.48 41.24 298.48C31.1663 298.48 23 290.314 23 280.24C23 270.166 31.1663 262 41.24 262C51.3137 262 59.48 270.166 59.48 280.24ZM39.1302 289.898L52.6631 276.365C53.1226 275.905 53.1226 275.16 52.6631 274.701L50.9989 273.037C50.5394 272.577 49.7943 272.577 49.3347 273.037L38.2981 284.073L33.1453 278.92C32.6858 278.461 31.9407 278.461 31.4811 278.92L29.8169 280.585C29.3574 281.044 29.3574 281.789 29.8169 282.249L37.4659 289.898C37.9255 290.357 38.6706 290.357 39.1302 289.898Z" fill="#5E60CE"/>
<rect x="18" y="310" width="248" height="47" rx="8" fill="#262626"/>
<path d="M59.48 333.24C59.48 343.314 51.3137 351.48 41.24 351.48C31.1663 351.48 23 343.314 23 333.24C23 323.166 31.1663 315 41.24 315C51.3137 315 59.48 323.166 59.48 333.24ZM39.1302 342.898L52.6631 329.365C53.1226 328.905 53.1226 328.16 52.6631 327.701L50.9989 326.037C50.5394 325.577 49.7943 325.577 49.3347 326.037L38.2981 337.073L33.1453 331.92C32.6858 331.461 31.9407 331.461 31.4811 331.92L29.8169 333.585C29.3574 334.044 29.3574 334.789 29.8169 335.249L37.4659 342.898C37.9255 343.357 38.6706 343.357 39.1302 342.898Z" fill="#5E60CE"/>
<line x1="68" y1="160.5" x2="246" y2="160.5" stroke="white"/>
<line x1="68" y1="166.5" x2="246" y2="166.5" stroke="white"/>
<line x1="68" y1="172.5" x2="246" y2="172.5" stroke="white"/>
<line x1="68" y1="178.5" x2="246" y2="178.5" stroke="white"/>
<line x1="68" y1="215.5" x2="246" y2="215.5" stroke="white"/>
<line x1="68" y1="221.5" x2="246" y2="221.5" stroke="white"/>
<line x1="68" y1="227.5" x2="246" y2="227.5" stroke="white"/>
<line x1="68" y1="233.5" x2="246" y2="233.5" stroke="white"/>
<line x1="68" y1="270.5" x2="246" y2="270.5" stroke="white"/>
<line x1="68" y1="276.5" x2="246" y2="276.5" stroke="white"/>
<line x1="68" y1="282.5" x2="246" y2="282.5" stroke="white"/>
<line x1="68" y1="288.5" x2="246" y2="288.5" stroke="white"/>
<line x1="68" y1="324.5" x2="246" y2="324.5" stroke="white"/>
<line x1="68" y1="330.5" x2="246" y2="330.5" stroke="white"/>
<line x1="68" y1="336.5" x2="246" y2="336.5" stroke="white"/>
<line x1="68" y1="342.5" x2="246" y2="342.5" stroke="white"/>
</svg>
