<svg width="361" height="156" viewBox="0 0 361 156" fill="none" xmlns="http://www.w3.org/2000/svg">
<path d="M80.0412 20.0076H90.18C94.2135 20.0076 98.0817 21.6194 100.934 24.4883C103.786 27.3573 105.388 31.2485 105.388 35.3058V137.294C105.388 141.352 103.786 145.243 100.934 148.112C98.0817 150.981 94.2135 152.593 90.18 152.593H19.2082C15.1748 152.593 11.3065 150.981 8.45439 148.112C5.60229 145.243 4 141.352 4 137.294V35.3058C4 31.2485 5.60229 27.3573 8.45439 24.4883C11.3065 21.6194 15.1748 20.0076 19.2082 20.0076H29.3471" stroke="#4EA8DE" stroke-width="6.324" stroke-linejoin="round"/>
<path d="M71.7622 9.80875H37.626C33.0537 9.80875 29.347 13.5373 29.347 18.1367V21.8784C29.347 26.4779 33.0537 30.2064 37.626 30.2064H71.7622C76.3345 30.2064 80.0412 26.4779 80.0412 21.8784V18.1367C80.0412 13.5373 76.3345 9.80875 71.7622 9.80875Z" stroke="#4EA8DE" stroke-width="6.324" stroke-linejoin="round"/>
<rect x="9.15707" y="42.4166" width="91.354" height="17.4156" rx="8" fill="#262626"/>
<path d="M24.4368 51.028C24.4368 54.7608 21.4286 57.7867 17.7178 57.7867C14.007 57.7867 10.9989 54.7608 10.9989 51.028C10.9989 47.2953 14.007 44.2693 17.7178 44.2693C21.4286 44.2693 24.4368 47.2953 24.4368 51.028ZM16.9406 54.6067L21.9257 49.5922C22.0949 49.4219 22.0949 49.1458 21.9257 48.9755L21.3126 48.3589C21.1434 48.1886 20.8689 48.1886 20.6996 48.3589L16.6341 52.4484L14.736 50.5391C14.5668 50.3688 14.2923 50.3688 14.123 50.5391L13.51 51.1557C13.3407 51.326 13.3407 51.6021 13.51 51.7724L16.3276 54.6067C16.4969 54.777 16.7713 54.777 16.9406 54.6067Z" fill="#5E60CE"/>
<rect x="9.15707" y="62.7965" width="91.354" height="17.4156" rx="8" fill="#262626"/>
<path d="M24.4368 71.4079C24.4368 75.1406 21.4286 78.1666 17.7178 78.1666C14.007 78.1666 10.9989 75.1406 10.9989 71.4079C10.9989 67.6752 14.007 64.6492 17.7178 64.6492C21.4286 64.6492 24.4368 67.6752 24.4368 71.4079ZM16.9406 74.9866L21.9257 69.9721C22.0949 69.8018 22.0949 69.5257 21.9257 69.3554L21.3126 68.7388C21.1434 68.5685 20.8689 68.5685 20.6996 68.7388L16.6341 72.8283L14.736 70.919C14.5668 70.7487 14.2923 70.7487 14.123 70.919L13.51 71.5356C13.3407 71.7059 13.3407 71.982 13.51 72.1523L16.3276 74.9866C16.4969 75.1569 16.7713 75.1569 16.9406 74.9866Z" fill="#5E60CE"/>
<path d="M27.5752 47.4189H93.1438" stroke="white"/>
<line x1="27.5752" y1="49.3275" x2="93.1438" y2="49.3275" stroke="white"/>
<line x1="27.5752" y1="51.5507" x2="93.1438" y2="51.5507" stroke="white"/>
<line x1="27.5752" y1="53.774" x2="93.1438" y2="53.774" stroke="white"/>
<rect x="9.15707" y="83.1764" width="91.354" height="17.4156" rx="8" fill="#262626"/>
<path d="M24.4368 91.7878C24.4368 95.5206 21.4286 98.5465 17.7178 98.5465C14.007 98.5465 10.9989 95.5206 10.9989 91.7878C10.9989 88.0551 14.007 85.0291 17.7178 85.0291C21.4286 85.0291 24.4368 88.0551 24.4368 91.7878ZM16.9406 95.3665L21.9257 90.352C22.0949 90.1817 22.0949 89.9056 21.9257 89.7353L21.3126 89.1187C21.1434 88.9484 20.8689 88.9484 20.6996 89.1187L16.6341 93.2082L14.736 91.2989C14.5668 91.1286 14.2923 91.1286 14.123 91.2989L13.51 91.9155C13.3407 92.0858 13.3407 92.3619 13.51 92.5322L16.3276 95.3665C16.4969 95.5368 16.7713 95.5368 16.9406 95.3665Z" fill="#5E60CE"/>
<rect x="9.15707" y="103.186" width="91.354" height="17.4156" rx="8" fill="#262626"/>
<path d="M24.4368 112.168C24.4368 115.9 21.4286 118.926 17.7178 118.926C14.007 118.926 10.9989 115.9 10.9989 112.168C10.9989 108.435 14.007 105.409 17.7178 105.409C21.4286 105.409 24.4368 108.435 24.4368 112.168ZM16.9406 115.746L21.9257 110.732C22.0949 110.562 22.0949 110.285 21.9257 110.115L21.3126 109.499C21.1434 109.328 20.8689 109.328 20.6996 109.499L16.6341 113.588L14.736 111.679C14.5668 111.508 14.2923 111.508 14.123 111.679L13.51 112.295C13.3407 112.466 13.3407 112.742 13.51 112.912L16.3276 115.746C16.4969 115.917 16.7713 115.917 16.9406 115.746Z" fill="#5E60CE"/>
<rect x="9.15707" y="123.195" width="91.354" height="17.4156" rx="8" fill="#262626"/>
<path d="M24.4368 131.807C24.4368 135.539 21.4286 138.565 17.7178 138.565C14.007 138.565 10.9989 135.539 10.9989 131.807C10.9989 128.074 14.007 125.048 17.7178 125.048C21.4286 125.048 24.4368 128.074 24.4368 131.807ZM16.9406 135.385L21.9257 130.371C22.0949 130.2 22.0949 129.924 21.9257 129.754L21.3126 129.137C21.1434 128.967 20.8689 128.967 20.6996 129.137L16.6341 133.227L14.736 131.318C14.5668 131.147 14.2923 131.147 14.123 131.318L13.51 131.934C13.3407 132.105 13.3407 132.381 13.51 132.551L16.3276 135.385C16.4969 135.555 16.7713 135.555 16.9406 135.385Z" fill="#5E60CE"/>
<line x1="27.5752" y1="67.4841" x2="93.1438" y2="67.4841" stroke="white"/>
<line x1="27.5752" y1="69.7074" x2="93.1438" y2="69.7074" stroke="white"/>
<line x1="27.5752" y1="71.9306" x2="93.1438" y2="71.9306" stroke="white"/>
<line x1="27.5752" y1="74.1539" x2="93.1438" y2="74.1539" stroke="white"/>
<line x1="27.5752" y1="87.864" x2="93.1438" y2="87.864" stroke="white"/>
<line x1="27.5752" y1="90.0872" x2="93.1438" y2="90.0872" stroke="white"/>
<line x1="27.5752" y1="92.3105" x2="93.1438" y2="92.3105" stroke="white"/>
<line x1="27.5752" y1="94.5338" x2="93.1438" y2="94.5338" stroke="white"/>
<line x1="27.5752" y1="108.244" x2="93.1438" y2="108.244" stroke="white"/>
<line x1="27.5752" y1="110.467" x2="93.1438" y2="110.467" stroke="white"/>
<line x1="27.5752" y1="112.69" x2="93.1438" y2="112.69" stroke="white"/>
<line x1="27.5752" y1="114.914" x2="93.1438" y2="114.914" stroke="white"/>
<line x1="27.5752" y1="128.253" x2="93.1438" y2="128.253" stroke="white"/>
<line x1="27.5752" y1="130.476" x2="93.1438" y2="130.476" stroke="white"/>
<line x1="27.5752" y1="132.7" x2="93.1438" y2="132.7" stroke="white"/>
<line x1="27.5752" y1="134.923" x2="93.1438" y2="134.923" stroke="white"/>
<path d="M158.5 42.4545V56.6591H122.562V42.4545H158.5ZM129.523 29.3864H149.125V79.4574C149.125 80.215 149.255 80.8542 149.516 81.375C149.776 81.8722 150.179 82.2509 150.723 82.5114C151.268 82.7481 151.966 82.8665 152.818 82.8665C153.41 82.8665 154.097 82.7955 154.878 82.6534C155.683 82.5114 156.275 82.393 156.653 82.2983L159.494 96.0767C158.618 96.3371 157.364 96.6567 155.73 97.0355C154.12 97.4143 152.203 97.6629 149.977 97.7812C145.479 98.018 141.703 97.5563 138.649 96.3963C135.595 95.2126 133.299 93.3542 131.76 90.821C130.221 88.2879 129.475 85.1155 129.523 81.304V29.3864ZM192.191 97.9943C186.273 97.9943 181.207 96.8224 176.993 94.4787C172.779 92.1113 169.547 88.8205 167.298 84.6065C165.049 80.3688 163.924 75.4564 163.924 69.8693C163.924 64.2822 165.049 59.3816 167.298 55.1676C169.547 50.9299 172.779 47.6392 176.993 45.2955C181.207 42.928 186.273 41.7443 192.191 41.7443C198.11 41.7443 203.176 42.928 207.39 45.2955C211.604 47.6392 214.836 50.9299 217.085 55.1676C219.334 59.3816 220.458 64.2822 220.458 69.8693C220.458 75.4564 219.334 80.3688 217.085 84.6065C214.836 88.8205 211.604 92.1113 207.39 94.4787C203.176 96.8224 198.11 97.9943 192.191 97.9943ZM192.333 83.5057C193.991 83.5057 195.423 82.9493 196.63 81.8366C197.838 80.724 198.773 79.1378 199.436 77.0781C200.099 75.0185 200.43 72.5682 200.43 69.7273C200.43 66.8627 200.099 64.4124 199.436 62.3764C198.773 60.3168 197.838 58.7306 196.63 57.6179C195.423 56.5052 193.991 55.9489 192.333 55.9489C190.582 55.9489 189.078 56.5052 187.824 57.6179C186.569 58.7306 185.61 60.3168 184.947 62.3764C184.284 64.4124 183.953 66.8627 183.953 69.7273C183.953 72.5682 184.284 75.0185 184.947 77.0781C185.61 79.1378 186.569 80.724 187.824 81.8366C189.078 82.9493 190.582 83.5057 192.333 83.5057Z" fill="#4EA8DE"/>
<path d="M248.157 97.7102C244.275 97.7102 240.7 96.6922 237.433 94.6562C234.19 92.6203 231.585 89.5308 229.62 85.3878C227.679 81.2448 226.708 76.0246 226.708 69.7273C226.708 63.1458 227.726 57.7955 229.762 53.6761C231.822 49.5568 234.474 46.5384 237.717 44.6207C240.984 42.7031 244.417 41.7443 248.015 41.7443C250.714 41.7443 253.082 42.2178 255.118 43.1648C257.154 44.0881 258.858 45.331 260.231 46.8935C261.604 48.4323 262.646 50.125 263.356 51.9716H263.64V24.2727H283.243V97H263.782V88.0511H263.356C262.599 89.8977 261.51 91.5549 260.089 93.0227C258.692 94.4669 256.988 95.6151 254.975 96.4673C252.987 97.2959 250.714 97.7102 248.157 97.7102ZM255.402 82.6534C257.201 82.6534 258.74 82.1326 260.018 81.0909C261.32 80.0256 262.315 78.5341 263.001 76.6165C263.711 74.6752 264.066 72.3788 264.066 69.7273C264.066 67.0284 263.711 64.7202 263.001 62.8026C262.315 60.8613 261.32 59.3816 260.018 58.3636C258.74 57.322 257.201 56.8011 255.402 56.8011C253.602 56.8011 252.064 57.322 250.785 58.3636C249.53 59.3816 248.56 60.8613 247.873 62.8026C247.21 64.7202 246.879 67.0284 246.879 69.7273C246.879 72.4261 247.21 74.7462 247.873 76.6875C248.56 78.6051 249.53 80.0848 250.785 81.1264C252.064 82.1444 253.602 82.6534 255.402 82.6534ZM319.145 97.9943C313.226 97.9943 308.16 96.8224 303.946 94.4787C299.732 92.1113 296.5 88.8205 294.251 84.6065C292.002 80.3688 290.877 75.4564 290.877 69.8693C290.877 64.2822 292.002 59.3816 294.251 55.1676C296.5 50.9299 299.732 47.6392 303.946 45.2955C308.16 42.928 313.226 41.7443 319.145 41.7443C325.063 41.7443 330.129 42.928 334.343 45.2955C338.557 47.6392 341.789 50.9299 344.038 55.1676C346.287 59.3816 347.412 64.2822 347.412 69.8693C347.412 75.4564 346.287 80.3688 344.038 84.6065C341.789 88.8205 338.557 92.1113 334.343 94.4787C330.129 96.8224 325.063 97.9943 319.145 97.9943ZM319.287 83.5057C320.944 83.5057 322.376 82.9493 323.583 81.8366C324.791 80.724 325.726 79.1378 326.389 77.0781C327.052 75.0185 327.383 72.5682 327.383 69.7273C327.383 66.8627 327.052 64.4124 326.389 62.3764C325.726 60.3168 324.791 58.7306 323.583 57.6179C322.376 56.5052 320.944 55.9489 319.287 55.9489C317.535 55.9489 316.031 56.5052 314.777 57.6179C313.522 58.7306 312.563 60.3168 311.9 62.3764C311.237 64.4124 310.906 66.8627 310.906 69.7273C310.906 72.5682 311.237 75.0185 311.9 77.0781C312.563 79.1378 313.522 80.724 314.777 81.8366C316.031 82.9493 317.535 83.5057 319.287 83.5057ZM125.688 133.341C124.864 133.341 124.157 133.053 123.567 132.478C122.985 131.896 122.697 131.189 122.705 130.358C122.697 129.548 122.985 128.856 123.567 128.281C124.157 127.705 124.864 127.418 125.688 127.418C126.469 127.418 127.158 127.705 127.754 128.281C128.358 128.856 128.663 129.548 128.67 130.358C128.663 130.912 128.518 131.416 128.234 131.871C127.957 132.318 127.594 132.677 127.147 132.947C126.7 133.21 126.213 133.341 125.688 133.341ZM137.747 111.182V133H131.866V111.182H137.747ZM140.743 133V116.636H146.624V133H140.743ZM143.684 114.932C142.888 114.932 142.206 114.669 141.638 114.143C141.07 113.618 140.786 112.986 140.786 112.247C140.786 111.509 141.07 110.876 141.638 110.351C142.206 109.825 142.888 109.562 143.684 109.562C144.486 109.562 145.168 109.825 145.729 110.351C146.297 110.876 146.581 111.509 146.581 112.247C146.581 112.986 146.297 113.618 145.729 114.143C145.168 114.669 144.486 114.932 143.684 114.932ZM164.578 121.963H159.166C159.137 121.629 159.02 121.342 158.814 121.1C158.608 120.859 158.342 120.674 158.015 120.546C157.696 120.411 157.341 120.344 156.95 120.344C156.446 120.344 156.012 120.436 155.65 120.621C155.288 120.805 155.11 121.068 155.118 121.409C155.11 121.651 155.213 121.874 155.426 122.08C155.647 122.286 156.069 122.446 156.694 122.56L160.018 123.156C161.694 123.462 162.941 123.977 163.757 124.701C164.581 125.418 164.997 126.381 165.004 127.588C164.997 128.753 164.649 129.765 163.96 130.624C163.278 131.477 162.344 132.137 161.158 132.606C159.979 133.067 158.633 133.298 157.12 133.298C154.62 133.298 152.664 132.787 151.25 131.764C149.844 130.741 149.059 129.392 148.896 127.716H154.734C154.812 128.234 155.068 128.636 155.501 128.92C155.941 129.197 156.495 129.335 157.163 129.335C157.703 129.335 158.147 129.243 158.495 129.058C158.85 128.874 159.031 128.611 159.038 128.27C159.031 127.957 158.875 127.709 158.569 127.524C158.271 127.339 157.802 127.19 157.163 127.077L154.265 126.565C152.596 126.274 151.346 125.72 150.515 124.903C149.684 124.087 149.272 123.036 149.279 121.75C149.272 120.614 149.571 119.651 150.174 118.863C150.785 118.067 151.655 117.464 152.784 117.052C153.921 116.633 155.267 116.423 156.822 116.423C159.187 116.423 161.051 116.913 162.415 117.893C163.786 118.874 164.507 120.23 164.578 121.963ZM177.016 116.636V120.898H166.234V116.636H177.016ZM168.322 112.716H174.203V127.737C174.203 127.964 174.242 128.156 174.32 128.312C174.398 128.462 174.519 128.575 174.683 128.653C174.846 128.724 175.055 128.76 175.311 128.76C175.489 128.76 175.695 128.739 175.929 128.696C176.17 128.653 176.348 128.618 176.462 128.589L177.314 132.723C177.051 132.801 176.675 132.897 176.185 133.011C175.702 133.124 175.126 133.199 174.459 133.234C173.109 133.305 171.977 133.167 171.06 132.819C170.144 132.464 169.455 131.906 168.994 131.146C168.532 130.386 168.308 129.435 168.322 128.291V112.716Z" fill="#5E60CE"/>
</svg>
